<mxfile host="app.diagrams.net" modified="2023-07-26T08:57:18.781Z" agent="Mozilla/5.0 (Macintosh; Intel Mac OS X 10_15_7) AppleWebKit/537.36 (KHTML, like Gecko) Chrome/114.0.0.0 YaBrowser/23.7.0.2562 Yowser/2.5 Safari/537.36" version="21.5.0" etag="KByo6i7UTkz-Kql3dhuw" type="github">
  <diagram name="Page-1" id="MBQDESDUBzrMAAd25Z5j">
    <mxGraphModel>
      <root>
        <mxCell id="0" />
        <mxCell id="1" parent="0" />
      </root>
    </mxGraphModel>
  </diagram>
</mxfile>
